<svg width="20" height="19" viewBox="0 0 20 19" fill="none" xmlns="http://www.w3.org/2000/svg">
<path d="M3.31114 7.76701C3.30719 7.78474 3.30213 7.80468 3.29563 7.82616L3.29549 7.82665C3.28404 7.86453 3.23528 8.02584 3.08776 8.17694C3.08537 8.17938 3.08296 8.18182 3.08052 8.18426M3.31114 7.76701L7.54796 10.8094C8.27259 11.5348 8.60166 12.2126 8.68548 12.7376C8.76632 13.2439 8.62786 13.6235 8.36284 13.8885C8.09671 14.1547 7.71688 14.293 7.21137 14.2122C6.68686 14.1285 6.00935 13.7993 5.28374 13.0737C4.98154 12.7714 4.68604 12.2976 4.41595 11.6986C4.15026 11.1093 3.93157 10.4497 3.76048 9.82056C3.65558 9.43483 3.57024 9.06678 3.50378 8.74201M3.31114 7.76701C3.32126 7.76998 3.33144 7.77298 3.3417 7.77602L3.31114 7.76701ZM3.08052 8.18426C2.95546 8.30932 2.82433 8.36452 2.76056 8.3875C2.68787 8.4137 2.62699 8.42453 2.59281 8.42948C2.57957 8.43139 2.56692 8.43289 2.55501 8.43407C2.55705 8.44589 2.55913 8.45781 2.56124 8.46982C2.65237 8.49189 2.77019 8.52265 2.911 8.56234C3.08269 8.61073 3.28314 8.67088 3.50378 8.74201M3.08052 8.18426C3.08293 8.18185 3.08534 8.17941 3.08775 8.17694L3.08056 8.1843L3.08052 8.18426ZM3.50378 8.74201C3.78094 8.83137 4.08995 8.93808 4.41384 9.06064C5.61591 9.51553 6.87215 10.1338 7.54769 10.8092L3.50378 8.74201Z" stroke="#333333" stroke-width="1.75"/>
<path d="M16.221 8.74023C16.1544 9.06521 16.069 9.43348 15.964 9.81945C15.7928 10.4489 15.5741 11.1089 15.3083 11.6984C15.0382 12.2977 14.7427 12.7717 14.4406 13.0738C13.7157 13.7986 13.0378 14.1275 12.5127 14.2112C12.0061 14.2918 11.6259 14.1531 11.3608 13.888C11.0957 13.6229 10.9571 13.243 11.0379 12.7366C11.1216 12.2116 11.4507 11.5338 12.1756 10.8089C12.8512 10.1333 14.1079 9.51441 15.3104 9.05915C15.6345 8.93645 15.9437 8.82965 16.221 8.74023Z" stroke="#333333" stroke-width="1.75"/>
<path d="M8.53809 7.05064L8.53809 7.05002C8.53797 6.7065 8.64015 6.2573 8.83686 5.73753C9.02976 5.22783 9.29356 4.70187 9.56888 4.22063C9.69579 3.99881 9.82333 3.78964 9.94475 3.59955C10.0288 3.76916 10.1161 3.95245 10.203 4.14528C10.6549 5.14785 11.0309 6.26234 11.031 7.05073C11.031 7.05074 11.031 7.05075 11.031 7.05077C11.031 7.05086 11.031 7.05095 11.031 7.05104C11.0306 7.91019 10.8236 8.49185 10.5757 8.83368C10.3389 9.16023 10.0611 9.28373 9.7849 9.28406C9.50793 9.28406 9.22963 9.16036 8.99258 8.83327C8.74456 8.49105 8.53779 7.90905 8.53809 7.05064Z" stroke="#333333" stroke-width="1.75"/>
</svg>
